<svg width="51" height="51" viewBox="0 0 51 51" fill="none" xmlns="http://www.w3.org/2000/svg">
<circle cx="25.5" cy="25.5" r="25.5" fill="#0060AA"/>
<path d="M28.5098 28.3571C29.9811 27.3326 30.9562 25.581 30.9562 23.5951C30.9562 20.4436 28.5098 17.8809 25.5014 17.8809C22.493 17.8809 20.0467 20.4436 20.0467 23.5951C20.0467 25.581 21.0189 27.3326 22.493 28.3571C19.1605 29.6459 16.7744 32.9958 16.7744 36.9285H18.2284C18.2284 32.7284 21.4921 29.3094 25.5014 29.3094C29.5107 29.3094 32.7744 32.7284 32.7744 36.9285H34.2284C34.2284 32.9958 31.8423 29.6459 28.5098 28.3571ZM21.5007 23.5951C21.5007 21.2848 23.296 19.4041 25.5014 19.4041C27.7068 19.4041 29.5021 21.2848 29.5021 23.5951C29.5021 25.9055 27.7068 27.7862 25.5014 27.7862C23.296 27.7862 21.5007 25.9055 21.5007 23.5951Z" fill="white"/>
<path d="M35.7828 24.5475C37.2541 23.523 38.2291 21.7715 38.2291 19.7856C38.2291 16.634 35.7828 14.0713 32.7744 14.0713C31.3175 14.0713 29.9954 14.6752 29.0146 15.6546C28.6532 16.0181 28.3378 16.4297 28.0825 16.8864C28.5356 17.0786 28.9687 17.316 29.3673 17.6014C29.6254 17.1628 29.9553 16.7782 30.3424 16.4658C31.0164 15.922 31.8567 15.5975 32.7715 15.5975C34.9769 15.5975 36.7722 17.4782 36.7722 19.7886C36.7722 21.7054 35.5333 23.3247 33.8527 23.8204C33.5086 23.9226 33.1472 23.9797 32.7715 23.9797C32.6425 23.9797 32.5163 23.9706 32.3901 23.9586C32.3643 24.5084 32.2811 25.0402 32.1463 25.5479C32.3528 25.5299 32.5593 25.4999 32.7715 25.4999C33.0669 25.4999 33.3566 25.5239 33.6434 25.5599C37.2426 26.0136 40.0445 29.2283 40.0445 33.1189H41.4985C41.4985 29.1862 39.1125 25.8363 35.78 24.5475H35.7828Z" fill="white"/>
<path d="M18.2285 25.4999C18.4407 25.4999 18.6472 25.5269 18.8537 25.5479C18.716 25.0372 18.6357 24.5054 18.6099 23.9586C18.4837 23.9706 18.3575 23.9797 18.2285 23.9797C17.8528 23.9797 17.4914 23.9226 17.1473 23.8204C15.4667 23.3247 14.2278 21.7084 14.2278 19.7886C14.2278 17.4782 16.0231 15.5975 18.2285 15.5975C19.1433 15.5975 19.9836 15.925 20.6576 16.4658C21.0448 16.7782 21.3774 17.1628 21.6327 17.6014C22.0342 17.316 22.4644 17.0786 22.9175 16.8864C22.6594 16.4327 22.3468 16.0181 21.9854 15.6546C21.0075 14.6752 19.6825 14.0713 18.2256 14.0713C15.2201 14.0713 12.7737 16.634 12.7737 19.7856C12.7737 21.7715 13.746 23.523 15.2201 24.5475C11.8876 25.8363 9.50146 29.1862 9.50146 33.1189H10.9555C10.9555 29.2283 13.7574 26.0136 17.3566 25.5599C17.6434 25.5239 17.9331 25.4999 18.2285 25.4999Z" fill="white"/>
</svg>
