<svg width="51" height="51" viewBox="0 0 51 51" fill="none" xmlns="http://www.w3.org/2000/svg">
<circle cx="25.5" cy="25.5" r="25.5" fill="#0060AA"/>
<mask id="mask0_87_207" style="mask-type:luminance" maskUnits="userSpaceOnUse" x="11" y="11" width="29" height="29">
<path d="M11.5 11.5H39.5V39.5H11.5V11.5Z" fill="white" stroke="white"/>
</mask>
<g mask="url(#mask0_87_207)">
<path d="M19.98 23.0435C20.0336 22.1444 20.6308 21.3618 21.4948 21.078L24.3402 20.1412" stroke="white" stroke-miterlimit="10" stroke-linecap="round" stroke-linejoin="round"/>
<path d="M26.6599 20.1412L29.5053 21.078C30.3694 21.3618 30.9666 22.1444 31.0201 23.0435" stroke="white" stroke-miterlimit="10" stroke-linecap="round" stroke-linejoin="round"/>
<path d="M26.6601 18.7603V20.1414C26.6601 20.7821 26.1407 21.3015 25.5 21.3015C24.8593 21.3015 24.3398 20.7821 24.3398 20.1414V18.7603" stroke="white" stroke-miterlimit="10" stroke-linecap="round" stroke-linejoin="round"/>
<path d="M28.1516 14.5617C28.1516 13.0973 26.9644 11.9101 25.4999 11.9101C24.0354 11.9101 22.8481 13.0973 22.8481 14.5617V16.3295C22.8481 17.794 24.0354 18.9812 25.4999 18.9812C26.9644 18.9812 28.1516 17.794 28.1516 16.3295V14.5617Z" stroke="white" stroke-miterlimit="10" stroke-linecap="round" stroke-linejoin="round"/>
<path d="M28.0708 32.041C28.2037 31.2393 28.7703 30.5634 29.5599 30.303L32.4053 29.3668" stroke="white" stroke-miterlimit="10" stroke-linecap="round" stroke-linejoin="round"/>
<path d="M39.09 34.9472V35.499H31.0247" stroke="white" stroke-miterlimit="10" stroke-linecap="round" stroke-linejoin="round"/>
<path d="M34.7258 29.367L37.5712 30.3032C38.4774 30.6018 39.0899 31.4484 39.0899 32.4027V33.0312" stroke="white" stroke-miterlimit="10" stroke-linecap="round" stroke-linejoin="round"/>
<path d="M18.5945 29.3668L21.4398 30.303C22.2296 30.5634 22.7961 31.2393 22.929 32.041" stroke="white" stroke-miterlimit="10" stroke-linecap="round" stroke-linejoin="round"/>
<path d="M19.9755 35.499H11.9102V34.9472" stroke="white" stroke-miterlimit="10" stroke-linecap="round" stroke-linejoin="round"/>
<path d="M11.9102 33.0312V32.4027C11.9102 31.4484 12.5227 30.6018 13.4288 30.3032L16.2742 29.367" stroke="white" stroke-miterlimit="10" stroke-linecap="round" stroke-linejoin="round"/>
<path d="M34.7257 27.9859V29.367C34.7257 30.0077 34.2063 30.5271 33.5656 30.5271C32.9249 30.5271 32.4055 30.0077 32.4055 29.367V27.9859" stroke="white" stroke-miterlimit="10" stroke-linecap="round" stroke-linejoin="round"/>
<path d="M36.2172 23.7873C36.2172 22.3228 35.03 21.1356 33.5655 21.1356C32.101 21.1356 30.9138 22.3228 30.9138 23.7873V25.5551C30.9138 27.0196 32.101 28.2068 33.5655 28.2068C35.03 28.2068 36.2172 27.0196 36.2172 25.5551V23.7873Z" stroke="white" stroke-miterlimit="10" stroke-linecap="round" stroke-linejoin="round"/>
<path d="M36.7695 34.0627V35.499" stroke="white" stroke-miterlimit="10" stroke-linecap="round" stroke-linejoin="round"/>
<path d="M18.5946 27.9859V29.367C18.5946 30.0077 18.0753 30.5271 17.4346 30.5271C16.7938 30.5271 16.2744 30.0077 16.2744 29.367V27.9859" stroke="white" stroke-miterlimit="10" stroke-linecap="round" stroke-linejoin="round"/>
<path d="M20.0863 23.7873C20.0863 22.3228 18.8991 21.1356 17.4347 21.1356C15.9702 21.1356 14.783 22.3228 14.783 23.7873V25.5551C14.783 27.0196 15.9702 28.2068 17.4347 28.2068C18.8991 28.2068 20.0863 27.0196 20.0863 25.5551V23.7873Z" stroke="white" stroke-miterlimit="10" stroke-linecap="round" stroke-linejoin="round"/>
<path d="M14.2305 34.0627V35.499" stroke="white" stroke-miterlimit="10" stroke-linecap="round" stroke-linejoin="round"/>
<path d="M31.0245 38.542V39.0898H19.9758V34.6122C19.9758 33.658 20.5884 32.8115 21.4948 32.5132L24.3401 31.5768" stroke="white" stroke-miterlimit="10" stroke-linecap="round" stroke-linejoin="round"/>
<path d="M26.6602 31.5767L29.5054 32.5132C30.4118 32.8115 31.0244 33.6579 31.0244 34.6122V36.627" stroke="white" stroke-miterlimit="10" stroke-linecap="round" stroke-linejoin="round"/>
<path d="M26.6601 30.1956V31.5767C26.6601 32.2174 26.1407 32.7368 25.5 32.7368C24.8593 32.7368 24.3398 32.2174 24.3398 31.5767V30.1956" stroke="white" stroke-miterlimit="10" stroke-linecap="round" stroke-linejoin="round"/>
<path d="M28.1516 25.9973C28.1516 24.5328 26.9644 23.3456 25.4999 23.3456C24.0354 23.3456 22.8481 24.5328 22.8481 25.9973V27.7651C22.8481 29.2295 24.0354 30.4167 25.4999 30.4167C26.9644 30.4167 28.1516 29.2295 28.1516 27.7651V25.9973Z" stroke="white" stroke-miterlimit="10" stroke-linecap="round" stroke-linejoin="round"/>
<path d="M28.7043 36.2725V39.0898" stroke="white" stroke-miterlimit="10" stroke-linecap="round" stroke-linejoin="round"/>
<path d="M22.2957 36.2725V39.0898" stroke="white" stroke-miterlimit="10" stroke-linecap="round" stroke-linejoin="round"/>
</g>
</svg>
