<svg width="51" height="51" viewBox="0 0 51 51" fill="none" xmlns="http://www.w3.org/2000/svg">
<circle cx="25.5" cy="25.5" r="25.5" fill="#E51A57"/>
<path d="M14.7942 21.3824C15.0126 21.3824 15.2221 21.2957 15.3765 21.1412C15.531 20.9868 15.6178 20.7773 15.6178 20.5589V16.4413C15.6178 16.2229 15.7045 16.0134 15.859 15.859C16.0134 15.7045 16.2229 15.6178 16.4413 15.6178H20.9707C21.1891 15.6178 21.3985 15.531 21.553 15.3765C21.7074 15.2221 21.7942 15.0126 21.7942 14.7942C21.7942 14.5758 21.7074 14.3663 21.553 14.2119C21.3985 14.0575 21.1891 13.9707 20.9707 13.9707H16.4413C15.786 13.9707 15.1576 14.231 14.6943 14.6943C14.231 15.1576 13.9707 15.786 13.9707 16.4413V20.5589C13.9707 20.7773 14.0575 20.9868 14.2119 21.1412C14.3663 21.2957 14.5758 21.3824 14.7942 21.3824ZM34.5588 13.9707H30.0295C29.811 13.9707 29.6016 14.0575 29.4471 14.2119C29.2927 14.3663 29.2059 14.5758 29.2059 14.7942C29.2059 15.0126 29.2927 15.2221 29.4471 15.3765C29.6016 15.531 29.811 15.6178 30.0295 15.6178H34.5588C34.7773 15.6178 34.9867 15.7045 35.1412 15.859C35.2956 16.0134 35.3824 16.2229 35.3824 16.4413V20.5589C35.3824 20.7773 35.4691 20.9868 35.6236 21.1412C35.778 21.2957 35.9875 21.3824 36.2059 21.3824C36.4243 21.3824 36.6338 21.2957 36.7882 21.1412C36.9427 20.9868 37.0294 20.7773 37.0294 20.5589V16.4413C37.0294 15.786 36.7691 15.1576 36.3058 14.6943C35.8425 14.231 35.2141 13.9707 34.5588 13.9707ZM36.2059 29.6177C35.9875 29.6177 35.778 29.7045 35.6236 29.8589C35.4691 30.0133 35.3824 30.2228 35.3824 30.4412V34.5588C35.3824 34.7773 35.2956 34.9867 35.1412 35.1412C34.9867 35.2956 34.7773 35.3824 34.5588 35.3824H30.0295C29.811 35.3824 29.6016 35.4691 29.4471 35.6236C29.2927 35.778 29.2059 35.9875 29.2059 36.2059C29.2059 36.4243 29.2927 36.6338 29.4471 36.7882C29.6016 36.9427 29.811 37.0294 30.0295 37.0294H34.5588C35.2141 37.0294 35.8425 36.7691 36.3058 36.3058C36.7691 35.8425 37.0294 35.2141 37.0294 34.5588V30.4412C37.0294 30.2228 36.9427 30.0133 36.7882 29.8589C36.6338 29.7045 36.4243 29.6177 36.2059 29.6177ZM20.9707 35.3824H16.4413C16.2229 35.3824 16.0134 35.2956 15.859 35.1412C15.7045 34.9867 15.6178 34.7773 15.6178 34.5588V30.4412C15.6178 30.2228 15.531 30.0133 15.3765 29.8589C15.2221 29.7045 15.0126 29.6177 14.7942 29.6177C14.5758 29.6177 14.3663 29.7045 14.2119 29.8589C14.0575 30.0133 13.9707 30.2228 13.9707 30.4412V34.5588C13.9707 35.2141 14.231 35.8425 14.6943 36.3058C15.1576 36.7691 15.786 37.0294 16.4413 37.0294H20.9707C21.1891 37.0294 21.3985 36.9427 21.553 36.7882C21.7074 36.6338 21.7942 36.4243 21.7942 36.2059C21.7942 35.9875 21.7074 35.778 21.553 35.6236C21.3985 35.4691 21.1891 35.3824 20.9707 35.3824ZM36.2059 24.6765H14.7942C14.5758 24.6765 14.3663 24.7633 14.2119 24.9177C14.0575 25.0722 13.9707 25.2816 13.9707 25.5001C13.9707 25.7185 14.0575 25.9279 14.2119 26.0824C14.3663 26.2368 14.5758 26.3236 14.7942 26.3236H36.2059C36.4243 26.3236 36.6338 26.2368 36.7882 26.0824C36.9427 25.9279 37.0294 25.7185 37.0294 25.5001C37.0294 25.2816 36.9427 25.0722 36.7882 24.9177C36.6338 24.7633 36.4243 24.6765 36.2059 24.6765Z" fill="white"/>
</svg>
