<svg width="51" height="51" viewBox="0 0 51 51" fill="none" xmlns="http://www.w3.org/2000/svg">
<ellipse cx="25.7499" cy="25.5" rx="25.1554" ry="25.5" fill="#E51A57"/>
<path d="M21.4869 36.9059C21.4869 37.234 21.2245 37.5 20.9009 37.5H18.0143C15.7523 37.5 13.9121 35.6346 13.9121 33.3416V30.4155C13.9121 30.0874 14.1745 29.8214 14.4981 29.8214C14.8218 29.8214 15.0842 30.0874 15.0842 30.4155V33.3416C15.0842 34.9794 16.3986 36.3119 18.0143 36.3119H20.9009C21.2245 36.3119 21.4869 36.5779 21.4869 36.9059ZM33.4856 13.5H30.599C30.2753 13.5 30.0129 13.766 30.0129 14.0941C30.0129 14.4222 30.2753 14.6882 30.599 14.6882H33.4856C35.1012 14.6882 36.4157 16.0206 36.4157 17.6585V20.5846C36.4157 20.9127 36.6781 21.1787 37.0017 21.1787C37.3253 21.1787 37.5877 20.9127 37.5877 20.5846V17.6585C37.5877 15.3655 35.7475 13.5 33.4856 13.5ZM14.4981 21.1786C14.8218 21.1786 15.0842 20.9126 15.0842 20.5845V17.6584C15.0842 16.0206 16.3986 14.6881 18.0143 14.6881H20.9009C21.2245 14.6881 21.4869 14.4221 21.4869 14.0941C21.4869 13.766 21.2245 13.5 20.9009 13.5H18.0143C15.7523 13.5 13.9121 15.3655 13.9121 17.6584V20.5845C13.9121 20.9126 14.1745 21.1786 14.4981 21.1786ZM37.0018 29.8214C36.6781 29.8214 36.4157 30.0874 36.4157 30.4155V33.3416C36.4157 34.9794 35.1013 36.3119 33.4856 36.3119H30.599C30.2754 36.3119 30.013 36.5779 30.013 36.9059C30.013 37.234 30.2754 37.5 30.599 37.5H33.4856C35.7476 37.5 37.5878 35.6346 37.5878 33.3416V30.4155C37.5878 30.0874 37.3254 29.8214 37.0018 29.8214ZM24.6154 19.8715V23.0399C24.6154 23.7622 24.0356 24.35 23.323 24.35H20.1975C19.4849 24.35 18.9051 23.7622 18.9051 23.0399V19.8715C18.9051 19.1492 19.4849 18.5614 20.1975 18.5614H23.323C24.0356 18.5614 24.6154 19.1492 24.6154 19.8715ZM23.4433 19.8715C23.4433 19.8054 23.3882 19.7495 23.323 19.7495H20.1975C20.1322 19.7495 20.0772 19.8054 20.0772 19.8715V23.0399C20.0772 23.106 20.1323 23.1619 20.1975 23.1619H23.323C23.3883 23.1619 23.4433 23.106 23.4433 23.0399V19.8715ZM26.8844 23.0399V19.8715C26.8844 19.1492 27.4642 18.5614 28.1768 18.5614H31.3023C32.0149 18.5614 32.5947 19.1492 32.5947 19.8715V23.0399C32.5947 23.7622 32.0149 24.35 31.3023 24.35H28.1768C27.4642 24.35 26.8844 23.7622 26.8844 23.0399ZM28.0565 23.0399C28.0565 23.106 28.1116 23.1619 28.1768 23.1619H31.3023C31.3676 23.1619 31.4226 23.106 31.4226 23.0399V19.8715C31.4226 19.8054 31.3675 19.7495 31.3023 19.7495H28.1768C28.1115 19.7495 28.0565 19.8054 28.0565 19.8715V23.0399ZM24.6154 27.9602V31.1286C24.6154 31.8509 24.0356 32.4387 23.323 32.4387H20.1975C19.4849 32.4387 18.9051 31.8509 18.9051 31.1286V27.9602C18.9051 27.2379 19.4849 26.6501 20.1975 26.6501H23.323C24.0356 26.6501 24.6154 27.2379 24.6154 27.9602ZM23.4433 27.9602C23.4433 27.8941 23.3882 27.8382 23.323 27.8382H20.1975C20.1322 27.8382 20.0772 27.8941 20.0772 27.9602V31.1286C20.0772 31.1947 20.1323 31.2506 20.1975 31.2506H23.323C23.3883 31.2506 23.4433 31.1947 23.4433 31.1286V27.9602ZM31.3024 32.4386H28.1768C27.4642 32.4386 26.8845 31.8509 26.8845 31.1285V27.9602C26.8845 27.2378 27.4642 26.6501 28.1768 26.6501H31.3024C32.015 26.6501 32.5947 27.2378 32.5947 27.9602V31.1285C32.5947 31.8509 32.015 32.4386 31.3024 32.4386ZM28.1768 31.2505H31.3024C31.3676 31.2505 31.4227 31.1947 31.4227 31.1285V27.9602C31.4227 27.894 31.3676 27.8382 31.3024 27.8382H28.1768C28.1116 27.8382 28.0565 27.894 28.0565 27.9602V31.1285C28.0565 31.1947 28.1116 31.2505 28.1768 31.2505Z" fill="white"/>
</svg>
