<svg width="20" height="20" viewBox="0 0 20 20" fill="none" xmlns="http://www.w3.org/2000/svg">
<g clip-path="url(#clip0_415_385)">
<path d="M2.03125 13.75C2.03125 13.2322 1.61151 12.8125 1.09375 12.8125C0.575988 12.8125 0.15625 13.2322 0.15625 13.75H2.03125ZM19.0937 13.75C19.0937 13.2322 18.674 12.8125 18.1562 12.8125C17.6385 12.8125 17.2187 13.2322 17.2187 13.75H19.0937ZM8.88575 14.4234C8.56737 14.8316 8.64012 15.4208 9.04837 15.7393C9.45662 16.0576 10.0457 15.9849 10.3642 15.5766L8.88575 14.4234ZM15.2393 9.32662C15.5576 8.91837 15.4849 8.32925 15.0766 8.01075C14.6684 7.69237 14.0793 7.76513 13.7608 8.17338L15.2393 9.32662ZM8.88575 15.5766C9.20425 15.9849 9.79337 16.0576 10.2016 15.7393C10.6099 15.4208 10.6826 14.8316 10.3642 14.4234L8.88575 15.5766ZM5.48923 8.17338C5.17078 7.76513 4.58166 7.69237 4.17341 8.01075C3.76515 8.32925 3.69234 8.91837 4.01078 9.32662L5.48923 8.17338ZM8.6875 15C8.6875 15.5178 9.10725 15.9375 9.625 15.9375C10.1427 15.9375 10.5625 15.5178 10.5625 15H8.6875ZM10.5625 1.25C10.5625 0.732238 10.1427 0.3125 9.625 0.3125C9.10725 0.3125 8.6875 0.732238 8.6875 1.25H10.5625ZM0.15625 13.75V15H2.03125V13.75H0.15625ZM0.15625 15C0.15625 17.5664 2.19071 19.6875 4.75 19.6875V17.8125C3.27071 17.8125 2.03125 16.5759 2.03125 15H0.15625ZM4.75 19.6875H14.5V17.8125H4.75V19.6875ZM14.5 19.6875C17.0593 19.6875 19.0937 17.5664 19.0937 15H17.2187C17.2187 16.5759 15.9793 17.8125 14.5 17.8125V19.6875ZM19.0937 15V13.75H17.2187V15H19.0937ZM10.3642 15.5766L15.2393 9.32662L13.7608 8.17338L8.88575 14.4234L10.3642 15.5766ZM10.3642 14.4234L5.48923 8.17338L4.01078 9.32662L8.88575 15.5766L10.3642 14.4234ZM10.5625 15V1.25H8.6875V15H10.5625Z" fill="black"/>
</g>
<defs>
<clipPath id="clip0_415_385">
<rect width="20" height="20" fill="white"/>
</clipPath>
</defs>
</svg>
